<svg version="1.1" preserveAspectRatio="none" xmlns="http://www.w3.org/2000/svg" width="500" height="500" viewBox="0 0 500 500"><rect width="100%" height="100%" fill="#5D0C1D" fill-opacity="1"/><svg viewBox="-12.6964 106.6863 394.0262 120" width="333" height="101.4145759850487" x="83.5px" y="199.2927px" xmlns="http://www.w3.org/2000/svg" xmlns:xlink="http://www.w3.org/1999/xlink" preserveAspectRatio="none"><defs></defs><style>.aIptOCySncolors-3 {fill:#350A0A;fill-opacity:1;}.aIptOCySncolors-4 {fill:#94043B;fill-opacity:1;}.aIptOCySncolors-5 {fill:#B23426;fill-opacity:1;}.aIptOCySncolors-6 {fill:#8E1204;fill-opacity:1;}.aIptOCySncolors-7 {fill:#E9709F;fill-opacity:1;}.companyName {fill:#CCB38D;fill-opacity:1;}.icon1 {fill:#CCB38D;fill-opacity:1;}.icon2 {fill:#0C1231;fill-opacity:1;}.icon3 {fill:#9A825F;fill-opacity:1;}.icon3-str {stroke:#9A825F;stroke-opacity:1;}</style><g opacity="1" transform="rotate(0 -12.6964 106.6863)">
<svg width="120.0001" height="120" x="-12.6964" y="106.6863" version="1.1" preserveAspectRatio="none" viewBox="20 20.00023078918457 160 159.99977111816406">
  <g transform="matrix(1 0 0 1 0 0)"><g><path d="M172.5 160H105a2.5 2.5 0 1 1 0-5h67.5c1.379 0 2.5-1.122 2.5-2.5v-75c0-1.378-1.121-2.5-2.5-2.5h-50a2.5 2.5 0 1 1 0-5h50c4.136 0 7.5 3.365 7.5 7.5v75c0 4.135-3.364 7.5-7.5 7.5z" data-color="1" class="icon1"></path><path d="M167.5 150H105a2.5 2.5 0 1 1 0-5h60V85h-47.5a2.5 2.5 0 1 1 0-5h50a2.5 2.5 0 0 1 2.5 2.5v65a2.5 2.5 0 0 1-2.5 2.5z" data-color="1" class="icon1"></path><path d="M127.5 180a2.5 2.5 0 0 1-2.5-2.5v-20a2.5 2.5 0 1 1 5 0v20a2.5 2.5 0 0 1-2.5 2.5z" data-color="1" class="icon1"></path><path d="M135 180h-30a2.5 2.5 0 1 1 0-5h30a2.5 2.5 0 1 1 0 5z" data-color="1" class="icon1"></path><path d="M90 180h-2.5a2.5 2.5 0 1 1 0-5H90c1.379 0 2.5-1.122 2.5-2.5v-60c0-1.378-1.121-2.5-2.5-2.5H47.5a2.503 2.503 0 0 0-2.5 2.5v25a2.5 2.5 0 1 1-5 0v-25c0-4.135 3.364-7.5 7.5-7.5H90c4.136 0 7.5 3.365 7.5 7.5v60c0 4.135-3.364 7.5-7.5 7.5z" data-color="1" class="icon1"></path><path d="M85 140a2.5 2.5 0 0 1-2.5-2.5v-15H55v15a2.5 2.5 0 1 1-5 0V120a2.5 2.5 0 0 1 2.5-2.5H85a2.5 2.5 0 0 1 2.5 2.5v17.5A2.5 2.5 0 0 1 85 140z" data-color="1" class="icon1"></path><path d="M75 180H27.5c-4.136 0-7.5-3.365-7.5-7.5v-20c0-4.135 3.364-7.5 7.5-7.5H75c4.136 0 7.5 3.365 7.5 7.5v20c0 4.135-3.364 7.5-7.5 7.5zm-47.5-30a2.503 2.503 0 0 0-2.5 2.5v20c0 1.378 1.121 2.5 2.5 2.5H75c1.379 0 2.5-1.122 2.5-2.5v-20c0-1.378-1.121-2.5-2.5-2.5H27.5z" data-color="1" class="icon1"></path><path d="M85 85c-9.368 0-16.714-2.462-20.259-3.93C61.103 79.564 55 76.447 55 72.5v-20a2.5 2.5 0 1 1 5 0v19.799C61.089 74.268 71.454 80 85 80s23.911-5.732 25-7.701V52.5a2.5 2.5 0 1 1 5 0v20c0 3.947-6.103 7.064-9.741 8.57C101.714 82.538 94.368 85 85 85zm25.045-12.791zm-50.09 0z" data-color="1" class="icon1"></path><path d="M85 65c-.33 0-.66-.065-.97-.196l-47.5-20a2.5 2.5 0 0 1 0-4.608l47.5-20a2.501 2.501 0 0 1 1.94 0l47.355 19.944A2.5 2.5 0 0 1 135 42.5v.005a2.499 2.499 0 0 1-1.675 2.36L85.97 64.804A2.49 2.49 0 0 1 85 65zM43.942 42.5 85 59.787l41.052-17.285L85 25.213 43.942 42.5z" data-color="1" class="icon1"></path><path d="M42.502 92.501a2.501 2.501 0 0 1-1.12-4.736C43.783 86.563 45 84.792 45 82.5v-35a2.5 2.5 0 1 1 5 0v35c0 4.221-2.266 7.678-6.382 9.736-.359.179-.74.265-1.116.265z" data-color="1" class="icon1"></path><path d="M50 97.5a2.5 2.5 0 1 1-5 0 2.5 2.5 0 0 1 5 0z" data-color="1" class="icon1"></path><path d="M57.5 100a2.5 2.5 0 0 1-2.5-2.5V85a2.5 2.5 0 1 1 5 0v12.5a2.5 2.5 0 0 1-2.5 2.5z" data-color="1" class="icon1"></path><path d="M35 162.5a2.5 2.5 0 1 1-5 0 2.5 2.5 0 0 1 5 0z" data-color="1" class="icon1"></path></g></g>
</svg>
</g><g opacity="1" transform="rotate(0 137.3037 106.6863)">
<svg width="244.0261" height="120" x="137.3037" y="106.6863" version="1.1" preserveAspectRatio="none" viewBox="2.8 -28.56 221.88 109.12">
  <g transform="matrix(1 0 0 1 0 0)" class="companyName"><path id="id-D6z1nYkh14" d="M18.20 0.56Q13.80 0.56 10.30-1.30Q6.80-3.16 4.80-6.48Q2.80-9.80 2.80-14L2.80-14Q2.80-18.20 4.80-21.52Q6.80-24.84 10.30-26.70Q13.80-28.56 18.20-28.56L18.20-28.56Q22.04-28.56 25.12-27.20Q28.20-25.84 30.24-23.28L30.24-23.28L25.20-18.72Q22.48-22 18.60-22L18.60-22Q16.32-22 14.54-21Q12.76-20 11.78-18.18Q10.80-16.36 10.80-14L10.80-14Q10.80-11.64 11.78-9.82Q12.76-8 14.54-7Q16.32-6 18.60-6L18.60-6Q22.48-6 25.20-9.28L25.20-9.28L30.24-4.72Q28.20-2.16 25.12-0.80Q22.04 0.56 18.20 0.56L18.20 0.56Z M43.28 0.56Q39.88 0.56 36.68-0.28Q33.48-1.12 31.48-2.52L31.48-2.52L34.08-8.36Q35.96-7.12 38.44-6.36Q40.92-5.60 43.32-5.60L43.32-5.60Q47.88-5.60 47.88-7.88L47.88-7.88Q47.88-9.08 46.58-9.66Q45.28-10.24 42.40-10.88L42.40-10.88Q39.24-11.56 37.12-12.34Q35-13.12 33.48-14.84Q31.96-16.56 31.96-19.48L31.96-19.48Q31.96-22.04 33.36-24.10Q34.76-26.16 37.54-27.36Q40.32-28.56 44.36-28.56L44.36-28.56Q47.12-28.56 49.80-27.94Q52.48-27.32 54.52-26.12L54.52-26.12L52.08-20.24Q48.08-22.40 44.32-22.40L44.32-22.40Q41.96-22.40 40.88-21.70Q39.80-21 39.80-19.88L39.80-19.88Q39.80-18.76 41.08-18.20Q42.36-17.64 45.20-17.04L45.20-17.04Q48.40-16.36 50.50-15.58Q52.60-14.80 54.14-13.10Q55.68-11.40 55.68-8.48L55.68-8.48Q55.68-5.96 54.28-3.92Q52.88-1.88 50.08-0.66Q47.28 0.56 43.28 0.56L43.28 0.56Z M81-7.96L83.40-2.12Q81.24-0.88 78.16-0.16Q75.08 0.56 71.76 0.56L71.76 0.56Q67.28 0.56 64.14-0.52Q61-1.60 59.42-3.52Q57.84-5.44 57.84-7.96L57.84-7.96Q57.84-10.16 59.04-11.84Q60.24-13.52 62.36-14.44L62.36-14.44Q60.72-15.28 59.86-16.78Q59.00-18.28 59.00-20.08L59.00-20.08Q59.00-22.40 60.46-24.32Q61.92-26.24 64.92-27.40Q67.92-28.56 72.32-28.56L72.32-28.56Q75.08-28.56 77.76-28.04Q80.44-27.52 82.48-26.64L82.48-26.64L80.32-20.72Q76.60-22.36 72.64-22.36L72.64-22.36Q69.80-22.36 68.40-21.62Q67-20.88 67-19.56L67-19.56Q67-17.16 70.48-17.16L70.48-17.16L78.40-17.16L78.40-11.12L69.96-11.12Q67.92-11.12 66.88-10.46Q65.84-9.80 65.84-8.52L65.84-8.52Q65.84-7.16 67.36-6.40Q68.88-5.64 72.08-5.64L72.08-5.64Q74.36-5.64 76.78-6.26Q79.20-6.88 81-7.96L81-7.96Z M2.80 40L2.80 12L10.72 12L10.72 33.72L24.08 33.72L24.08 40L2.80 40Z M48.80 32.04L51.20 37.88Q49.04 39.12 45.96 39.84Q42.88 40.56 39.56 40.56L39.56 40.56Q35.08 40.56 31.94 39.48Q28.80 38.40 27.22 36.48Q25.64 34.56 25.64 32.04L25.64 32.04Q25.64 29.84 26.84 28.16Q28.04 26.48 30.16 25.56L30.16 25.56Q28.52 24.72 27.66 23.22Q26.80 21.72 26.80 19.92L26.80 19.92Q26.80 17.60 28.26 15.68Q29.72 13.76 32.72 12.60Q35.72 11.44 40.12 11.44L40.12 11.44Q42.88 11.44 45.56 11.96Q48.24 12.48 50.28 13.36L50.28 13.36L48.12 19.28Q44.40 17.64 40.44 17.64L40.44 17.64Q37.60 17.64 36.20 18.38Q34.80 19.12 34.80 20.44L34.80 20.44Q34.80 22.84 38.28 22.84L38.28 22.84L46.20 22.84L46.20 28.88L37.76 28.88Q35.72 28.88 34.68 29.54Q33.64 30.20 33.64 31.48L33.64 31.48Q33.64 32.84 35.16 33.60Q36.68 34.36 39.88 34.36L39.88 34.36Q42.16 34.36 44.58 33.74Q47 33.12 48.80 32.04L48.80 32.04Z M66.44 11.44Q70.40 11.44 73.42 13.02Q76.44 14.60 78.10 17.62Q79.76 20.64 79.76 24.88L79.76 24.88L79.76 40L71.84 40L71.84 33.80L60.92 33.80L60.92 40L53.12 40L53.12 24.88Q53.12 20.64 54.78 17.62Q56.44 14.60 59.46 13.02Q62.48 11.44 66.44 11.44L66.44 11.44ZM60.92 27.68L71.84 27.68L71.84 24.20Q71.84 21.12 70.36 19.56Q68.88 18 66.40 18L66.40 18Q63.88 18 62.40 19.56Q60.92 21.12 60.92 24.20L60.92 24.20L60.92 27.68Z M102.44 40L97.36 32.56L93.04 32.56L93.04 40L85.12 40L85.12 12L97.92 12Q101.72 12 104.52 13.26Q107.32 14.52 108.84 16.86Q110.36 19.20 110.36 22.36L110.36 22.36Q110.36 25.40 108.94 27.66Q107.52 29.92 104.88 31.20L104.88 31.20L110.92 40L102.44 40ZM102.36 22.36Q102.36 20.40 101.12 19.32Q99.88 18.24 97.44 18.24L97.44 18.24L93.04 18.24L93.04 26.44L97.44 26.44Q99.88 26.44 101.12 25.38Q102.36 24.32 102.36 22.36L102.36 22.36Z M130.64 11.44Q135.64 11.44 138.40 14.62Q141.16 17.80 141.16 23.68L141.16 23.68L141.16 40L133.24 40L133.24 23.92Q133.24 20.96 131.90 19.48Q130.56 18 128.16 18L128.16 18Q125.68 18 124.16 19.58Q122.64 21.16 122.64 24.32L122.64 24.32L122.64 40L114.72 40L114.72 12L122.40 12L122.40 15.20Q125.24 11.44 130.64 11.44L130.64 11.44Z M162.20 18.12L157.68 18.12L157.68 33.88L162.20 33.88L162.20 40L145.20 40L145.20 33.88L149.76 33.88L149.76 18.12L145.20 18.12L145.20 12L162.20 12L162.20 18.12Z M182.40 11.44Q187.40 11.44 190.16 14.62Q192.92 17.80 192.92 23.68L192.92 23.68L192.92 40L185.00 40L185.00 23.92Q185.00 20.96 183.66 19.48Q182.32 18 179.92 18L179.92 18Q177.44 18 175.92 19.58Q174.40 21.16 174.40 24.32L174.40 24.32L174.40 40L166.48 40L166.48 12L174.16 12L174.16 15.20Q177.00 11.44 182.40 11.44L182.40 11.44Z M217.04 32.56L217.04 25.40L224.04 25.40L224.04 40L218.56 40L218.56 38.28Q215.72 40.56 211.04 40.56L211.04 40.56Q207.12 40.56 203.88 38.88Q200.64 37.20 198.74 33.98Q196.84 30.76 196.84 26.28L196.84 26.28Q196.84 21.96 198.84 18.58Q200.84 15.20 204.40 13.32Q207.96 11.44 212.44 11.44L212.44 11.44Q216.36 11.44 219.48 12.76Q222.60 14.08 224.68 16.56L224.68 16.56L219.64 21.12Q216.80 18 212.84 18L212.84 18Q209.20 18 207.02 20.22Q204.84 22.44 204.84 26.24L204.84 26.24Q204.84 30.08 206.88 32.12Q208.92 34.16 212.04 34.16L212.04 34.16Q215.04 34.16 217.04 32.56L217.04 32.56Z M21.52 52L29.44 52L29.44 80L21.52 80L21.52 69.08L10.72 69.08L10.72 80L2.80 80L2.80 52L10.72 52L10.72 62.52L21.52 62.52L21.52 52Z M53.16 52L61.08 52L61.08 80L53.40 80L53.40 76.80Q52.04 78.64 49.96 79.60Q47.88 80.56 45.28 80.56L45.28 80.56Q40.32 80.56 37.56 77.38Q34.80 74.20 34.80 68.32L34.80 68.32L34.80 52L42.72 52L42.72 68.08Q42.72 71.04 44.06 72.52Q45.40 74 47.72 74L47.72 74Q50.16 74 51.66 72.40Q53.16 70.80 53.16 67.68L53.16 67.68L53.16 52Z M88.20 65.40Q90.60 66.24 91.96 68.02Q93.32 69.80 93.32 72.32L93.32 72.32Q93.32 76 90.36 78Q87.40 80 81.80 80L81.80 80L66.68 80L66.68 52L81 52Q86.36 52 89.16 53.98Q91.96 55.96 91.96 59.32L91.96 59.32Q91.96 61.32 90.98 62.90Q90 64.48 88.20 65.40L88.20 65.40ZM79.96 57.72L74.52 57.72L74.52 63.12L79.96 63.12Q83.96 63.12 83.96 60.40L83.96 60.40Q83.96 57.72 79.96 57.72L79.96 57.72ZM81.16 74.28Q85.32 74.28 85.32 71.44L85.32 71.44Q85.32 68.60 81.16 68.60L81.16 68.60L74.52 68.60L74.52 74.28L81.16 74.28Z"/></g>
</svg>
</g></svg></svg>